<svg xmlns="http://www.w3.org/2000/svg" width="100" height="100" viewBox="0 0 100 100" role="img" aria-labelledby="title"><title id="title">selection — hand-drawn icon</title><path d="M33 24 L70 53 51 57 62 78 51 84 40 62 27 75Z" fill="#f4ce19"/><path d="M28 18 Q43 32 69 51 L49 55 Q55 65 60 78 L50 83 39 61 26 73 Q29 47 28 18Z" fill="white" stroke="#20211e" stroke-width="4.5" stroke-linecap="round" stroke-linejoin="round"/><path d="M32 28 L57 49 44 51 53 75 50 77 38 55 31 64Z" fill="#f4ce19"/><path d="M15 21 11 14 M23 12 22 6 M38 15 43 9 M12 34 6 34" fill="none" stroke="#20211e" stroke-width="2.7" stroke-linecap="round" stroke-linejoin="round"/></svg>